<svg width="170" height="41" viewBox="0 0 170 41" fill="none" xmlns="http://www.w3.org/2000/svg">
<g opacity="0.5">
<g clip-path="url(#clip0_1722_237)">
<path d="M51.2773 29.3241H63.2293V25.7241H55.5253V12.1641H51.2773V29.3241Z" fill="#F8F8F8"/>
<path d="M70.3098 26.9193C68.6058 26.9193 67.7178 25.4313 67.7178 23.1993C67.7178 20.9673 68.6058 19.4553 70.3098 19.4553C72.0138 19.4553 72.9258 20.9673 72.9258 23.1993C72.9258 25.4313 72.0138 26.9193 70.3098 26.9193ZM70.3338 29.7033C74.2938 29.7033 76.8858 26.8953 76.8858 23.1993C76.8858 19.5033 74.2938 16.6953 70.3338 16.6953C66.3978 16.6953 63.7578 19.5033 63.7578 23.1993C63.7578 26.8953 66.3978 29.7033 70.3338 29.7033Z" fill="#F8F8F8"/>
<path d="M83.7406 33.5679C85.5646 33.5679 87.1726 33.1599 88.2526 32.1999C89.2366 31.3119 89.8846 29.9679 89.8846 28.1199V17.0319H86.1406V18.3519H86.0926C85.3726 17.3199 84.2686 16.6719 82.6366 16.6719C79.5886 16.6719 77.4766 19.2159 77.4766 22.8159C77.4766 26.5839 80.0446 28.6479 82.8046 28.6479C84.2926 28.6479 85.2286 28.0479 85.9486 27.2319H86.0446V28.4559C86.0446 29.9439 85.3486 30.8079 83.6926 30.8079C82.3966 30.8079 81.7486 30.2559 81.5326 29.6079H77.7406C78.1246 32.1759 80.3566 33.5679 83.7406 33.5679ZM83.7166 25.7439C82.2526 25.7439 81.2926 24.5439 81.2926 22.6959C81.2926 20.8239 82.2526 19.6239 83.7166 19.6239C85.3486 19.6239 86.2126 21.0159 86.2126 22.6719C86.2126 24.3999 85.4206 25.7439 83.7166 25.7439Z" fill="#F8F8F8"/>
<path d="M97.5832 26.9193C95.8792 26.9193 94.9912 25.4313 94.9912 23.1993C94.9912 20.9673 95.8792 19.4553 97.5832 19.4553C99.2872 19.4553 100.199 20.9673 100.199 23.1993C100.199 25.4313 99.2872 26.9193 97.5832 26.9193ZM97.6072 29.7033C101.567 29.7033 104.159 26.8953 104.159 23.1993C104.159 19.5033 101.567 16.6953 97.6072 16.6953C93.6712 16.6953 91.0312 19.5033 91.0312 23.1993C91.0312 26.8953 93.6712 29.7033 97.6072 29.7033Z" fill="#F8F8F8"/>
<path d="M105.301 29.3241H109.213V17.0361H105.301V29.3241ZM105.301 15.3321H109.213V12.1641H105.301V15.3321Z" fill="#F8F8F8"/>
<path d="M110.91 33.3759H114.822V28.0479H114.87C115.638 29.0799 116.766 29.7039 118.35 29.7039C121.566 29.7039 123.702 27.1599 123.702 23.1759C123.702 19.4799 121.71 16.6719 118.446 16.6719C116.766 16.6719 115.566 17.4159 114.726 18.5199H114.654V17.0319H110.91V33.3759ZM117.342 26.6799C115.662 26.6799 114.702 25.3119 114.702 23.3199C114.702 21.3279 115.566 19.8159 117.27 19.8159C118.95 19.8159 119.742 21.2079 119.742 23.3199C119.742 25.4079 118.83 26.6799 117.342 26.6799Z" fill="#F8F8F8"/>
<path d="M130.074 29.7039C133.29 29.7039 135.666 28.3119 135.666 25.6239C135.666 22.4799 133.122 21.9279 130.962 21.5679C129.402 21.2799 128.01 21.1599 128.01 20.2959C128.01 19.5279 128.754 19.1679 129.714 19.1679C130.794 19.1679 131.538 19.5039 131.682 20.6079H135.282C135.09 18.1839 133.218 16.6719 129.738 16.6719C126.834 16.6719 124.434 18.0159 124.434 20.6079C124.434 23.4879 126.714 24.0639 128.85 24.4239C130.482 24.7119 131.97 24.8319 131.97 25.9359C131.97 26.7279 131.226 27.1599 130.05 27.1599C128.754 27.1599 127.938 26.5599 127.794 25.3359H124.098C124.218 28.0479 126.474 29.7039 130.074 29.7039Z" fill="#F8F8F8"/>
<path d="M140.976 29.6871C142.68 29.6871 143.76 29.0151 144.648 27.8151H144.72V29.3271H148.464V17.0391H144.552V23.9031C144.552 25.3671 143.736 26.3751 142.392 26.3751C141.144 26.3751 140.544 25.6311 140.544 24.2871V17.0391H136.656V25.1031C136.656 27.8391 138.144 29.6871 140.976 29.6871Z" fill="#F8F8F8"/>
<path d="M150.168 29.3199H154.08V22.4319C154.08 20.9679 154.8 19.9359 156.024 19.9359C157.2 19.9359 157.752 20.7039 157.752 22.0239V29.3199H161.664V22.4319C161.664 20.9679 162.36 19.9359 163.608 19.9359C164.784 19.9359 165.336 20.7039 165.336 22.0239V29.3199H169.248V21.3279C169.248 18.5679 167.856 16.6719 165.072 16.6719C163.488 16.6719 162.168 17.3439 161.208 18.8319H161.16C160.536 17.5119 159.312 16.6719 157.704 16.6719C155.928 16.6719 154.752 17.5119 153.984 18.7839H153.912V17.0319H150.168V29.3199Z" fill="#F8F8F8"/>
<path fill-rule="evenodd" clip-rule="evenodd" d="M20.1015 40.3203C31.1473 40.3203 40.1015 31.366 40.1015 20.3203C40.1015 9.27461 31.1473 0.320312 20.1015 0.320312C9.05585 0.320312 0.101562 9.27461 0.101562 20.3203C0.101562 31.366 9.05585 40.3203 20.1015 40.3203ZM23.1885 15.7729C24.8933 14.068 24.8933 11.3039 23.1885 9.59897C21.4836 7.89409 18.7195 7.89409 17.0146 9.59897C15.3098 11.3039 15.3098 14.068 17.0146 15.7729L20.1015 18.8598L23.1885 15.7729ZM24.649 23.4073C26.3539 25.1122 29.118 25.1122 30.8229 23.4073C32.5277 21.7024 32.5277 18.9383 30.8229 17.2334C29.118 15.5286 26.3539 15.5286 24.649 17.2334L21.5621 20.3204L24.649 23.4073ZM23.1885 31.0417C24.8933 29.3368 24.8933 26.5727 23.1885 24.8678L20.1015 21.7809L17.0146 24.8678C15.3098 26.5727 15.3098 29.3368 17.0146 31.0417C18.7195 32.7466 21.4836 32.7466 23.1885 31.0417ZM9.38019 23.4073C7.67535 21.7024 7.67535 18.9383 9.38019 17.2334C11.0851 15.5286 13.8492 15.5286 15.5541 17.2334L18.641 20.3204L15.5541 23.4073C13.8492 25.1122 11.0851 25.1122 9.38019 23.4073Z" fill="#F8F8F8"/>
</g>
</g>
<defs>
<clipPath id="clip0_1722_237">
<rect width="170" height="41" fill="white"/>
</clipPath>
</defs>
</svg>
