<svg width="170" height="41" viewBox="0 0 170 41" fill="none" xmlns="http://www.w3.org/2000/svg">
<g opacity="0.5">
<g clip-path="url(#clip0_115_1360)">
<path d="M51.8604 28.1405H63.8124V24.5405H56.1084V10.9805H51.8604V28.1405Z" fill="#F8F8F8"/>
<path d="M70.8933 25.7406C69.1893 25.7406 68.3013 24.2526 68.3013 22.0206C68.3013 19.7886 69.1893 18.2766 70.8933 18.2766C72.5973 18.2766 73.5093 19.7886 73.5093 22.0206C73.5093 24.2526 72.5973 25.7406 70.8933 25.7406ZM70.9173 28.5246C74.8773 28.5246 77.4693 25.7166 77.4693 22.0206C77.4693 18.3246 74.8773 15.5166 70.9173 15.5166C66.9813 15.5166 64.3413 18.3246 64.3413 22.0206C64.3413 25.7166 66.9813 28.5246 70.9173 28.5246Z" fill="#F8F8F8"/>
<path d="M84.3236 32.3892C86.1476 32.3892 87.7556 31.9812 88.8356 31.0212C89.8196 30.1332 90.4676 28.7892 90.4676 26.9412V15.8532H86.7236V17.1732H86.6756C85.9556 16.1412 84.8516 15.4932 83.2196 15.4932C80.1716 15.4932 78.0596 18.0372 78.0596 21.6372C78.0596 25.4052 80.6276 27.4692 83.3876 27.4692C84.8756 27.4692 85.8116 26.8692 86.5316 26.0532H86.6276V27.2772C86.6276 28.7652 85.9316 29.6292 84.2756 29.6292C82.9796 29.6292 82.3316 29.0772 82.1156 28.4292H78.3236C78.7076 30.9972 80.9396 32.3892 84.3236 32.3892ZM84.2996 24.5652C82.8356 24.5652 81.8756 23.3652 81.8756 21.5172C81.8756 19.6452 82.8356 18.4452 84.2996 18.4452C85.9316 18.4452 86.7956 19.8372 86.7956 21.4932C86.7956 23.2212 86.0036 24.5652 84.2996 24.5652Z" fill="#F8F8F8"/>
<path d="M98.1663 25.7406C96.4623 25.7406 95.5743 24.2526 95.5743 22.0206C95.5743 19.7886 96.4623 18.2766 98.1663 18.2766C99.8703 18.2766 100.782 19.7886 100.782 22.0206C100.782 24.2526 99.8703 25.7406 98.1663 25.7406ZM98.1903 28.5246C102.15 28.5246 104.742 25.7166 104.742 22.0206C104.742 18.3246 102.15 15.5166 98.1903 15.5166C94.2543 15.5166 91.6143 18.3246 91.6143 22.0206C91.6143 25.7166 94.2543 28.5246 98.1903 28.5246Z" fill="#F8F8F8"/>
<path d="M105.884 28.1405H109.796V15.8525H105.884V28.1405ZM105.884 14.1485H109.796V10.9805H105.884V14.1485Z" fill="#F8F8F8"/>
<path d="M111.494 32.1972H115.406V26.8692H115.454C116.222 27.9012 117.35 28.5252 118.934 28.5252C122.15 28.5252 124.286 25.9812 124.286 21.9972C124.286 18.3012 122.294 15.4932 119.03 15.4932C117.35 15.4932 116.15 16.2372 115.31 17.3412H115.238V15.8532H111.494V32.1972ZM117.926 25.5012C116.246 25.5012 115.286 24.1332 115.286 22.1412C115.286 20.1492 116.15 18.6372 117.854 18.6372C119.534 18.6372 120.326 20.0292 120.326 22.1412C120.326 24.2292 119.414 25.5012 117.926 25.5012Z" fill="#F8F8F8"/>
<path d="M130.655 28.5252C133.871 28.5252 136.247 27.1332 136.247 24.4452C136.247 21.3012 133.703 20.7492 131.543 20.3892C129.983 20.1012 128.591 19.9812 128.591 19.1172C128.591 18.3492 129.335 17.9892 130.295 17.9892C131.375 17.9892 132.119 18.3252 132.263 19.4292H135.863C135.671 17.0052 133.799 15.4932 130.319 15.4932C127.415 15.4932 125.015 16.8372 125.015 19.4292C125.015 22.3092 127.295 22.8852 129.431 23.2452C131.063 23.5332 132.551 23.6532 132.551 24.7572C132.551 25.5492 131.807 25.9812 130.631 25.9812C129.335 25.9812 128.519 25.3812 128.375 24.1572H124.679C124.799 26.8692 127.055 28.5252 130.655 28.5252Z" fill="#F8F8F8"/>
<path d="M141.561 28.5005C143.265 28.5005 144.345 27.8285 145.233 26.6285H145.305V28.1405H149.049V15.8525H145.137V22.7165C145.137 24.1805 144.321 25.1885 142.977 25.1885C141.729 25.1885 141.129 24.4445 141.129 23.1005V15.8525H137.241V23.9165C137.241 26.6525 138.729 28.5005 141.561 28.5005Z" fill="#F8F8F8"/>
<path d="M150.75 28.1412H154.662V21.2532C154.662 19.7892 155.382 18.7572 156.606 18.7572C157.782 18.7572 158.334 19.5252 158.334 20.8452V28.1412H162.246V21.2532C162.246 19.7892 162.942 18.7572 164.19 18.7572C165.366 18.7572 165.918 19.5252 165.918 20.8452V28.1412H169.83V20.1492C169.83 17.3892 168.438 15.4932 165.654 15.4932C164.07 15.4932 162.75 16.1652 161.79 17.6532H161.742C161.118 16.3332 159.894 15.4932 158.286 15.4932C156.51 15.4932 155.334 16.3332 154.566 17.6052H154.494V15.8532H150.75V28.1412Z" fill="#F8F8F8"/>
<path fill-rule="evenodd" clip-rule="evenodd" d="M20.6841 40.1406C31.7298 40.1406 40.6841 31.1863 40.6841 20.1406C40.6841 9.09493 31.7298 0.140625 20.6841 0.140625C9.63837 0.140625 0.684082 9.09493 0.684082 20.1406C0.684082 31.1863 9.63837 40.1406 20.6841 40.1406ZM26.9234 9.45746C27.2271 8.37867 26.1802 7.74075 25.2241 8.42192L11.8772 17.9302C10.8403 18.6689 11.0034 20.1406 12.1222 20.1406H15.6368V20.1134H22.4866L16.9053 22.0827L14.4448 30.8238C14.1411 31.9026 15.1879 32.5405 16.1441 31.8593L29.491 22.3511C30.5279 21.6124 30.3647 20.1406 29.246 20.1406H23.9162L26.9234 9.45746Z" fill="#F8F8F8"/>
</g>
</g>
<defs>
<clipPath id="clip0_115_1360">
<rect width="170" height="41" fill="white" transform="translate(0 0.00292969)"/>
</clipPath>
</defs>
</svg>
