<svg width="167" height="41" viewBox="0 0 167 41" fill="none" xmlns="http://www.w3.org/2000/svg">
<g opacity="0.5">
<g clip-path="url(#clip0_115_1319)">
<path d="M48.6309 28.7967H60.5829V25.1967H52.8789V11.6367H48.6309V28.7967Z" fill="#F8F8F8"/>
<path d="M67.6638 26.3969C65.9598 26.3969 65.0718 24.9089 65.0718 22.6769C65.0718 20.4449 65.9598 18.9329 67.6638 18.9329C69.3678 18.9329 70.2798 20.4449 70.2798 22.6769C70.2798 24.9089 69.3678 26.3969 67.6638 26.3969ZM67.6878 29.1809C71.6478 29.1809 74.2398 26.3729 74.2398 22.6769C74.2398 18.9809 71.6478 16.1729 67.6878 16.1729C63.7518 16.1729 61.1118 18.9809 61.1118 22.6769C61.1118 26.3729 63.7518 29.1809 67.6878 29.1809Z" fill="#F8F8F8"/>
<path d="M81.0941 33.0444C82.9181 33.0444 84.5261 32.6364 85.6061 31.6764C86.5901 30.7884 87.2381 29.4444 87.2381 27.5964V16.5084H83.4941V17.8284H83.4461C82.7261 16.7964 81.6221 16.1484 79.9901 16.1484C76.9421 16.1484 74.8301 18.6924 74.8301 22.2924C74.8301 26.0604 77.3981 28.1244 80.1581 28.1244C81.6461 28.1244 82.5821 27.5244 83.3021 26.7084H83.3981V27.9324C83.3981 29.4204 82.7021 30.2844 81.0461 30.2844C79.7501 30.2844 79.1021 29.7324 78.8861 29.0844H75.0941C75.4781 31.6524 77.7101 33.0444 81.0941 33.0444ZM81.0701 25.2204C79.6061 25.2204 78.6461 24.0204 78.6461 22.1724C78.6461 20.3004 79.6061 19.1004 81.0701 19.1004C82.7021 19.1004 83.5661 20.4924 83.5661 22.1484C83.5661 23.8764 82.7741 25.2204 81.0701 25.2204Z" fill="#F8F8F8"/>
<path d="M94.9368 26.3969C93.2328 26.3969 92.3448 24.9089 92.3448 22.6769C92.3448 20.4449 93.2328 18.9329 94.9368 18.9329C96.6408 18.9329 97.5528 20.4449 97.5528 22.6769C97.5528 24.9089 96.6408 26.3969 94.9368 26.3969ZM94.9608 29.1809C98.9208 29.1809 101.513 26.3729 101.513 22.6769C101.513 18.9809 98.9208 16.1729 94.9608 16.1729C91.0248 16.1729 88.3848 18.9809 88.3848 22.6769C88.3848 26.3729 91.0248 29.1809 94.9608 29.1809Z" fill="#F8F8F8"/>
<path d="M102.655 28.7967H106.567V16.5087H102.655V28.7967ZM102.655 14.8047H106.567V11.6367H102.655V14.8047Z" fill="#F8F8F8"/>
<path d="M108.264 32.8524H112.176V27.5244H112.224C112.992 28.5564 114.12 29.1804 115.704 29.1804C118.92 29.1804 121.056 26.6364 121.056 22.6524C121.056 18.9564 119.064 16.1484 115.8 16.1484C114.12 16.1484 112.92 16.8924 112.08 17.9964H112.008V16.5084H108.264V32.8524ZM114.696 26.1564C113.016 26.1564 112.056 24.7884 112.056 22.7964C112.056 20.8044 112.92 19.2924 114.624 19.2924C116.304 19.2924 117.096 20.6844 117.096 22.7964C117.096 24.8844 116.184 26.1564 114.696 26.1564Z" fill="#F8F8F8"/>
<path d="M127.426 29.1804C130.642 29.1804 133.018 27.7884 133.018 25.1004C133.018 21.9564 130.474 21.4044 128.314 21.0444C126.754 20.7564 125.362 20.6364 125.362 19.7724C125.362 19.0044 126.106 18.6444 127.066 18.6444C128.146 18.6444 128.89 18.9804 129.034 20.0844H132.634C132.442 17.6604 130.57 16.1484 127.09 16.1484C124.186 16.1484 121.786 17.4924 121.786 20.0844C121.786 22.9644 124.066 23.5404 126.202 23.9004C127.834 24.1884 129.322 24.3084 129.322 25.4124C129.322 26.2044 128.578 26.6364 127.402 26.6364C126.106 26.6364 125.29 26.0364 125.146 24.8124H121.45C121.57 27.5244 123.826 29.1804 127.426 29.1804Z" fill="#F8F8F8"/>
<path d="M138.331 29.1568C140.035 29.1568 141.115 28.4848 142.003 27.2848H142.075V28.7968H145.819V16.5088H141.907V23.3728C141.907 24.8368 141.091 25.8448 139.747 25.8448C138.499 25.8448 137.899 25.1008 137.899 23.7568V16.5088H134.011V24.5728C134.011 27.3088 135.499 29.1568 138.331 29.1568Z" fill="#F8F8F8"/>
<path d="M147.521 28.7964H151.433V21.9084C151.433 20.4444 152.153 19.4124 153.377 19.4124C154.553 19.4124 155.105 20.1804 155.105 21.5004V28.7964H159.017V21.9084C159.017 20.4444 159.713 19.4124 160.961 19.4124C162.137 19.4124 162.689 20.1804 162.689 21.5004V28.7964H166.601V20.8044C166.601 18.0444 165.209 16.1484 162.425 16.1484C160.841 16.1484 159.521 16.8204 158.561 18.3084H158.513C157.889 16.9884 156.665 16.1484 155.057 16.1484C153.281 16.1484 152.105 16.9884 151.337 18.2604H151.265V16.5084H147.521V28.7964Z" fill="#F8F8F8"/>
<path fill-rule="evenodd" clip-rule="evenodd" d="M8.65429 3.89474C7.22363 4.8951 5.92993 6.07785 4.80688 7.40927C9.39618 6.9832 15.2267 7.67892 21.9959 11.0635C29.2245 14.6777 35.0453 14.7999 39.0963 14.0185C38.7287 12.9057 38.2659 11.8361 37.7178 10.8193C33.0805 11.3084 27.1355 10.6609 20.2071 7.19685C15.8075 4.99705 11.9293 4.09088 8.65429 3.89474ZM35.0089 6.96352C31.3468 2.87187 26.0249 0.296875 20.1015 0.296875C18.362 0.296875 16.6742 0.518982 15.0652 0.936355C17.2444 1.53096 19.5594 2.40086 21.9959 3.61914C27.0685 6.1554 31.4479 6.97203 35.0089 6.96352ZM39.9624 17.9249C35.0684 18.8913 28.3103 18.6929 20.2071 14.6412C12.6315 10.8534 6.60199 10.9012 2.53546 11.8049C2.32556 11.8515 2.1206 11.9005 1.92059 11.9515C1.38818 13.1094 0.963196 14.327 0.658264 15.5914C0.983948 15.5044 1.32049 15.4216 1.66772 15.3444C6.60113 14.2481 13.5716 14.2957 21.9959 18.5079C29.5716 22.2957 35.6011 22.2481 39.6677 21.3444C39.807 21.3135 39.9443 21.2815 40.0793 21.2484C40.0941 20.9331 40.1015 20.6159 40.1015 20.2969C40.1015 19.4944 40.0543 18.7029 39.9624 17.9249ZM39.4263 25.4692C34.5798 26.3165 28.0185 25.9912 20.2071 22.0856C12.6315 18.2978 6.60199 18.3456 2.53546 19.2493C1.63281 19.4498 0.820801 19.694 0.104493 19.952C0.10254 20.0667 0.101562 20.1817 0.101562 20.2969C0.101562 31.3426 9.05585 40.2968 20.1015 40.2968C29.3586 40.2968 37.1468 34.0078 39.4263 25.4692Z" fill="#F8F8F8"/>
</g>
</g>
<defs>
<clipPath id="clip0_115_1319">
<rect width="167" height="41" fill="white" transform="translate(0 0.00292969)"/>
</clipPath>
</defs>
</svg>
