<svg width="168" height="41" viewBox="0 0 168 41" fill="none" xmlns="http://www.w3.org/2000/svg">
<g opacity="0.5">
<g clip-path="url(#clip0_115_1343)">
<path d="M49.2773 28.9549H61.2293V25.3549H53.5253V11.7949H49.2773V28.9549Z" fill="#F8F8F8"/>
<path d="M68.3108 26.5551C66.6068 26.5551 65.7188 25.0671 65.7188 22.8351C65.7188 20.6031 66.6068 19.0911 68.3108 19.0911C70.0148 19.0911 70.9268 20.6031 70.9268 22.8351C70.9268 25.0671 70.0148 26.5551 68.3108 26.5551ZM68.3348 29.3391C72.2948 29.3391 74.8868 26.5311 74.8868 22.8351C74.8868 19.1391 72.2948 16.3311 68.3348 16.3311C64.3988 16.3311 61.7588 19.1391 61.7588 22.8351C61.7588 26.5311 64.3988 29.3391 68.3348 29.3391Z" fill="#F8F8F8"/>
<path d="M81.7411 33.2036C83.5651 33.2036 85.1731 32.7956 86.2531 31.8356C87.2371 30.9476 87.8851 29.6036 87.8851 27.7556V16.6676H84.1411V17.9876H84.0931C83.3731 16.9556 82.2691 16.3076 80.6371 16.3076C77.5891 16.3076 75.4771 18.8516 75.4771 22.4516C75.4771 26.2196 78.0451 28.2836 80.8051 28.2836C82.2931 28.2836 83.2291 27.6836 83.9491 26.8676H84.0451V28.0916C84.0451 29.5796 83.3491 30.4436 81.6931 30.4436C80.3971 30.4436 79.7491 29.8916 79.5331 29.2436H75.7411C76.1251 31.8116 78.3571 33.2036 81.7411 33.2036ZM81.7171 25.3796C80.2531 25.3796 79.2931 24.1796 79.2931 22.3316C79.2931 20.4596 80.2531 19.2596 81.7171 19.2596C83.3491 19.2596 84.2131 20.6516 84.2131 22.3076C84.2131 24.0356 83.4211 25.3796 81.7171 25.3796Z" fill="#F8F8F8"/>
<path d="M95.5833 26.5551C93.8793 26.5551 92.9912 25.0671 92.9912 22.8351C92.9912 20.6031 93.8793 19.0911 95.5833 19.0911C97.2873 19.0911 98.1992 20.6031 98.1992 22.8351C98.1992 25.0671 97.2873 26.5551 95.5833 26.5551ZM95.6072 29.3391C99.5672 29.3391 102.159 26.5311 102.159 22.8351C102.159 19.1391 99.5672 16.3311 95.6072 16.3311C91.6712 16.3311 89.0312 19.1391 89.0312 22.8351C89.0312 26.5311 91.6712 29.3391 95.6072 29.3391Z" fill="#F8F8F8"/>
<path d="M103.302 28.9549H107.214V16.6669H103.302V28.9549ZM103.302 14.9629H107.214V11.7949H103.302V14.9629Z" fill="#F8F8F8"/>
<path d="M108.911 33.0116H112.823V27.6836H112.871C113.639 28.7156 114.767 29.3396 116.351 29.3396C119.567 29.3396 121.703 26.7956 121.703 22.8116C121.703 19.1156 119.711 16.3076 116.447 16.3076C114.767 16.3076 113.567 17.0516 112.727 18.1556H112.655V16.6676H108.911V33.0116ZM115.343 26.3156C113.663 26.3156 112.703 24.9476 112.703 22.9556C112.703 20.9636 113.567 19.4516 115.271 19.4516C116.951 19.4516 117.743 20.8436 117.743 22.9556C117.743 25.0436 116.831 26.3156 115.343 26.3156Z" fill="#F8F8F8"/>
<path d="M128.072 29.3396C131.288 29.3396 133.664 27.9476 133.664 25.2596C133.664 22.1156 131.12 21.5636 128.96 21.2036C127.4 20.9156 126.008 20.7956 126.008 19.9316C126.008 19.1636 126.752 18.8036 127.712 18.8036C128.792 18.8036 129.536 19.1396 129.68 20.2436H133.28C133.088 17.8196 131.216 16.3076 127.736 16.3076C124.832 16.3076 122.432 17.6516 122.432 20.2436C122.432 23.1236 124.712 23.6996 126.848 24.0596C128.48 24.3476 129.968 24.4676 129.968 25.5716C129.968 26.3636 129.224 26.7956 128.048 26.7956C126.752 26.7956 125.936 26.1956 125.792 24.9716H122.096C122.216 27.6836 124.472 29.3396 128.072 29.3396Z" fill="#F8F8F8"/>
<path d="M138.978 29.315C140.682 29.315 141.762 28.643 142.65 27.443H142.722V28.955H146.466V16.667H142.554V23.531C142.554 24.995 141.738 26.003 140.394 26.003C139.146 26.003 138.546 25.259 138.546 23.915V16.667H134.658V24.731C134.658 27.467 136.146 29.315 138.978 29.315Z" fill="#F8F8F8"/>
<path d="M148.168 28.9556H152.08V22.0676C152.08 20.6036 152.8 19.5716 154.024 19.5716C155.2 19.5716 155.752 20.3396 155.752 21.6596V28.9556H159.664V22.0676C159.664 20.6036 160.36 19.5716 161.608 19.5716C162.784 19.5716 163.336 20.3396 163.336 21.6596V28.9556H167.248V20.9636C167.248 18.2036 165.856 16.3076 163.072 16.3076C161.488 16.3076 160.168 16.9796 159.208 18.4676H159.16C158.536 17.1476 157.312 16.3076 155.704 16.3076C153.928 16.3076 152.752 17.1476 151.984 18.4196H151.912V16.6676H148.168V28.9556Z" fill="#F8F8F8"/>
<path d="M25.4099 1.97964L21.4769 0.925781L18.1625 13.2954L15.1702 2.12802L11.2371 3.18188L14.4701 15.2474L6.41746 7.19476L3.53827 10.074L12.371 18.9067L1.37124 15.9594L0.317383 19.8924L12.336 23.1128C12.1984 22.5193 12.1256 21.9009 12.1256 21.2654C12.1256 16.7678 15.7716 13.1219 20.2692 13.1219C24.7668 13.1219 28.4128 16.7678 28.4128 21.2654C28.4128 21.8967 28.3409 22.5114 28.205 23.1014L39.1277 26.028L40.1815 22.0951L28.1151 18.8619L39.1156 15.9143L38.0617 11.9813L25.9958 15.2143L34.0484 7.1617L31.1692 4.28251L22.459 12.9928L25.4099 1.97964Z" fill="#F8F8F8"/>
<path d="M28.1944 23.1475C27.8572 24.5731 27.1453 25.8538 26.1685 26.8799L34.0815 34.793L36.9607 31.9138L28.1944 23.1475Z" fill="#F8F8F8"/>
<path d="M26.0886 26.9629C25.1 27.9726 23.8507 28.7261 22.4497 29.1144L25.3291 39.8604L29.2621 38.8065L26.0886 26.9629Z" fill="#F8F8F8"/>
<path d="M22.3028 29.1532C21.6528 29.3203 20.9715 29.4091 20.2694 29.4091C19.5172 29.4091 18.7888 29.3071 18.0973 29.1162L15.2153 39.872L19.1483 40.9258L22.3028 29.1532Z" fill="#F8F8F8"/>
<path d="M17.9583 29.0769C16.5787 28.6693 15.3516 27.9062 14.3832 26.8936L6.45068 34.8261L9.32987 37.7053L17.9583 29.0769Z" fill="#F8F8F8"/>
<path d="M14.3168 26.8229C13.365 25.8039 12.6717 24.5403 12.3417 23.1367L1.3833 26.073L2.43715 30.006L14.3168 26.8229Z" fill="#F8F8F8"/>
</g>
</g>
<defs>
<clipPath id="clip0_115_1343">
<rect width="168" height="41" fill="white" transform="translate(0 0.00292969)"/>
</clipPath>
</defs>
</svg>
