<svg width="173" height="50" viewBox="0 0 173 50" fill="none" xmlns="http://www.w3.org/2000/svg">
<path d="M75.7 15C77.6 15 79.25 15.32 80.65 15.96C82.05 16.58 83.13 17.48 83.89 18.66C84.65 19.82 85.03 21.19 85.03 22.77C85.03 24.35 84.65 25.72 83.89 26.88C83.13 28.04 82.05 28.94 80.65 29.58C79.25 30.2 77.6 30.51 75.7 30.51H72.04V36H66.1V15H75.7ZM75.34 25.83C76.56 25.83 77.48 25.57 78.1 25.05C78.72 24.51 79.03 23.75 79.03 22.77C79.03 21.79 78.72 21.03 78.1 20.49C77.48 19.95 76.56 19.68 75.34 19.68H72.04V25.83H75.34ZM87.8027 19.74H93.5027V36H87.8027V19.74ZM90.6527 17.94C89.6127 17.94 88.7727 17.65 88.1327 17.07C87.4927 16.49 87.1727 15.77 87.1727 14.91C87.1727 14.05 87.4927 13.33 88.1327 12.75C88.7727 12.17 89.6127 11.88 90.6527 11.88C91.6927 11.88 92.5327 12.16 93.1727 12.72C93.8127 13.26 94.1327 13.96 94.1327 14.82C94.1327 15.72 93.8127 16.47 93.1727 17.07C92.5327 17.65 91.6927 17.94 90.6527 17.94ZM107.527 36L104.617 31.74L101.497 36H95.317L101.497 27.87L95.497 19.74H101.917L104.797 23.85L107.797 19.74H113.827L107.827 27.66L114.037 36H107.527ZM115.781 19.74H121.481V36H115.781V19.74ZM118.631 17.94C117.591 17.94 116.751 17.65 116.111 17.07C115.471 16.49 115.151 15.77 115.151 14.91C115.151 14.05 115.471 13.33 116.111 12.75C116.751 12.17 117.591 11.88 118.631 11.88C119.671 11.88 120.511 12.16 121.151 12.72C121.791 13.26 122.111 13.96 122.111 14.82C122.111 15.72 121.791 16.47 121.151 17.07C120.511 17.65 119.671 17.94 118.631 17.94ZM133.345 36.27C131.605 36.27 130.035 35.91 128.635 35.19C127.235 34.47 126.135 33.47 125.335 32.19C124.555 30.91 124.165 29.46 124.165 27.84C124.165 26.24 124.555 24.8 125.335 23.52C126.135 22.24 127.225 21.25 128.605 20.55C130.005 19.83 131.585 19.47 133.345 19.47C135.105 19.47 136.685 19.83 138.085 20.55C139.485 21.25 140.575 22.24 141.355 23.52C142.135 24.78 142.525 26.22 142.525 27.84C142.525 29.46 142.135 30.91 141.355 32.19C140.575 33.47 139.485 34.47 138.085 35.19C136.685 35.91 135.105 36.27 133.345 36.27ZM133.345 31.74C134.345 31.74 135.165 31.4 135.805 30.72C136.445 30.02 136.765 29.06 136.765 27.84C136.765 26.64 136.445 25.7 135.805 25.02C135.165 24.34 134.345 24 133.345 24C132.345 24 131.525 24.34 130.885 25.02C130.245 25.7 129.925 26.64 129.925 27.84C129.925 29.06 130.245 30.02 130.885 30.72C131.525 31.4 132.345 31.74 133.345 31.74ZM155.756 19.47C157.776 19.47 159.396 20.07 160.616 21.27C161.856 22.47 162.476 24.28 162.476 26.7V36H156.776V27.63C156.776 25.41 155.886 24.3 154.106 24.3C153.126 24.3 152.336 24.62 151.736 25.26C151.156 25.9 150.866 26.86 150.866 28.14V36H145.166V19.74H150.596V21.51C151.236 20.85 151.996 20.35 152.876 20.01C153.756 19.65 154.716 19.47 155.756 19.47ZM168.455 36.27C167.495 36.27 166.685 35.95 166.025 35.31C165.365 34.67 165.035 33.86 165.035 32.88C165.035 31.88 165.355 31.07 165.995 30.45C166.655 29.83 167.475 29.52 168.455 29.52C169.455 29.52 170.275 29.83 170.915 30.45C171.555 31.07 171.875 31.88 171.875 32.88C171.875 33.86 171.545 34.67 170.885 35.31C170.245 35.95 169.435 36.27 168.455 36.27Z" fill="#163031"/>
<circle cx="25" cy="25" r="25" fill="#163031"/>
<path fill-rule="evenodd" clip-rule="evenodd" d="M35.9466 19.6443C35.982 19.4038 36.0004 19.1577 36.0004 18.9073C36.0004 18.4724 35.9448 18.05 35.8405 17.6476C35.631 16.8382 35.2156 16.0727 34.5953 15.4384C34.1093 14.9416 33.5452 14.5735 32.9433 14.3343C32.4031 14.1186 31.8152 14 31.201 14C30.4242 14 29.6898 14.1897 29.0403 14.5254C28.7548 14.6726 28.4807 14.8509 28.2228 15.0602C28.0774 15.178 27.9389 15.3042 27.808 15.438C27.777 15.4696 27.7461 15.5023 27.7156 15.5354C26.8407 16.4801 26.4019 17.6949 26.4033 18.9084C26.4016 20.1637 26.8714 21.4207 27.808 22.3783C28.7446 23.3359 29.9738 23.8163 31.2016 23.8145C32.4294 23.8161 33.6587 23.3359 34.5953 22.3783C35.3481 21.6083 35.7994 20.6449 35.9466 19.6443ZM29.7954 24.9641C31.1077 24.9724 32.2974 25.5199 33.1579 26.4019C34.0272 27.2886 34.5643 28.517 34.5643 29.8712C34.5643 31.2254 34.0272 32.4539 33.1579 33.3405C33.0271 33.4763 32.8872 33.6027 32.7415 33.7199C31.9238 34.3829 30.8884 34.7785 29.7643 34.7785C27.1134 34.7785 24.965 32.5818 24.965 29.8712C24.965 28.517 24.4279 27.2886 23.5586 26.4019C22.6915 25.5131 21.49 24.964 20.1656 24.964C17.5146 24.964 15.3662 22.7673 15.3662 20.0567C15.3662 18.7025 15.9033 17.474 16.7726 16.5874C17.6397 15.6986 18.8412 15.1494 20.1656 15.1494C21.49 15.1494 22.6915 15.6986 23.5586 16.5874C24.4279 17.474 24.965 18.7025 24.965 20.0567C24.965 22.7673 27.1134 24.964 29.7643 24.964L29.7649 24.9639L29.7954 24.9641ZM15.4056 34.5638C14.469 33.6062 13.9993 32.3493 14.001 31.0939C13.9995 29.8805 14.4384 28.6657 15.3132 27.7211C15.3437 27.6879 15.3747 27.6552 15.4056 27.6235C15.5365 27.4897 15.675 27.3635 15.8204 27.2457C16.0783 27.0365 16.3524 26.8582 16.6378 26.711C17.2873 26.3752 18.0218 26.1855 18.7986 26.1855C19.4129 26.1855 20.0007 26.3042 20.541 26.5198C21.1428 26.7591 21.707 27.1271 22.1929 27.624C22.8143 28.2593 23.2301 29.0263 23.4391 29.8372C23.5428 30.2384 23.598 30.6594 23.598 31.0928C23.598 31.3323 23.5812 31.5678 23.5488 31.7982C23.5452 31.8237 23.5414 31.8492 23.5374 31.8747C23.3835 32.8592 22.9345 33.8054 22.1929 34.5638C21.2563 35.5215 20.0271 36.0016 18.7993 36.0001C17.5715 36.0018 16.3422 35.5215 15.4056 34.5638Z" fill="url(#paint0_linear_362_2486)"/>
<defs>
<linearGradient id="paint0_linear_362_2486" x1="35.9948" y1="14.0148" x2="9.91684" y2="21.2249" gradientUnits="userSpaceOnUse">
<stop stop-color="#F0FF6C"/>
<stop offset="1" stop-color="#6BFDD9"/>
</linearGradient>
</defs>
</svg>
