<svg width="30" height="30" viewBox="0 0 30 30" fill="none" xmlns="http://www.w3.org/2000/svg">
<g clip-path="url(#clip0_115_95)">
<path d="M5.31252 0.375H24.6875C27.625 0.375 30 2.74998 30 5.68752V24.3125C30 27.25 27.625 29.6251 24.6875 29.6251H5.31252C2.37498 29.625 0 27.25 0 24.3125V5.68752C0 2.74998 2.37498 0.375 5.31252 0.375Z" fill="#001834"/>
<path d="M6.75 20.8875V8.02502C6.75 7.93754 6.7875 7.8875 6.87498 7.8875C7.0875 7.8875 7.28748 7.8875 7.575 7.87502C7.875 7.86254 8.18748 7.86254 8.52498 7.85C8.86248 7.83746 9.225 7.83752 9.61248 7.82498C9.99996 7.8125 10.375 7.8125 10.75 7.8125C11.7749 7.8125 12.625 7.93748 13.325 8.19998C13.95 8.4125 14.525 8.76248 15 9.22496C15.4 9.62498 15.7125 10.1125 15.9125 10.65C16.1 11.175 16.2 11.7124 16.2 12.2749C16.2 13.35 15.95 14.2374 15.45 14.9374C14.95 15.6375 14.25 16.1625 13.4375 16.4625C12.5875 16.7749 11.65 16.8874 10.625 16.8874C10.325 16.8874 10.125 16.8874 9.99996 16.875C9.87498 16.8625 9.69996 16.8625 9.46248 16.8625V20.875C9.47496 20.9625 9.4125 21.0375 9.32496 21.05C9.31248 21.05 9.29994 21.05 9.27498 21.05H6.9C6.79998 21.05 6.75 21 6.75 20.8875ZM9.47502 10.3V14.5C9.65004 14.5125 9.81252 14.5251 9.96252 14.5251H10.625C11.4882 14.5251 12.485 14.3222 13.0875 13.6376C13.606 13.0484 13.6075 11.8799 13.1875 11.2376C12.689 10.4751 11.6921 10.2542 10.8375 10.2751C10.5125 10.2751 10.225 10.2751 9.98748 10.2876C9.73752 10.275 9.5625 10.2875 9.47502 10.3Z" fill="#00A9FF"/>
<path d="M24.0002 13.7376C23.6252 13.5376 23.2252 13.4001 22.8002 13.3126C22.3377 13.2126 21.8752 13.1501 21.4002 13.1501C21.1502 13.1376 20.8877 13.1751 20.6502 13.2376C20.4877 13.2751 20.3502 13.3626 20.2627 13.4876C20.2002 13.5876 20.1627 13.7126 20.1627 13.8251C20.1627 13.9376 20.2127 14.0501 20.2877 14.1501C20.4002 14.2877 20.5502 14.4002 20.7127 14.4876C21.0002 14.6376 21.3002 14.7752 21.6002 14.9001C22.2752 15.1251 22.9252 15.4376 23.5252 15.8126C23.9377 16.0751 24.2752 16.4251 24.5127 16.8501C24.7126 17.2502 24.8127 17.6876 24.8002 18.1376C24.8127 18.7251 24.6377 19.3126 24.3127 19.8001C23.9627 20.3001 23.4752 20.6876 22.9127 20.9126C22.3002 21.1751 21.5502 21.3126 20.6502 21.3126C20.0752 21.3126 19.5127 21.2627 18.9502 21.1502C18.5127 21.0752 18.0753 20.9376 17.6752 20.7501C17.5878 20.7002 17.5252 20.6126 17.5377 20.5127V18.3377C17.5377 18.3002 17.5502 18.2502 17.5877 18.2252C17.6252 18.2001 17.6627 18.2127 17.7002 18.2376C18.1877 18.5252 18.7002 18.7251 19.2502 18.8501C19.7252 18.9751 20.2252 19.0376 20.7252 19.0376C21.2002 19.0376 21.5377 18.9751 21.7627 18.8626C21.9627 18.7751 22.1002 18.5626 22.1002 18.3376C22.1002 18.1626 22.0002 18.0001 21.8002 17.8376C21.6002 17.6751 21.1877 17.4876 20.5752 17.2501C19.9377 17.0251 19.3501 16.7251 18.8002 16.3501C18.4127 16.0751 18.0877 15.7126 17.8502 15.2876C17.6502 14.8876 17.5502 14.4501 17.5627 14.0126C17.5627 13.4751 17.7127 12.9626 17.9877 12.5001C18.3001 12.0002 18.7627 11.6001 19.3002 11.3501C19.8877 11.0501 20.6251 10.9126 21.5127 10.9126C22.0252 10.9126 22.5502 10.9501 23.0626 11.0251C23.4376 11.0751 23.8002 11.1751 24.1377 11.3126C24.1876 11.3251 24.2377 11.3751 24.2626 11.4251C24.2751 11.4751 24.2877 11.5251 24.2877 11.5751V13.6126C24.2877 13.6626 24.2626 13.7126 24.2251 13.7376C24.1127 13.7626 24.0502 13.7626 24.0002 13.7376Z" fill="#00A9FF"/>
</g>
<defs>
<clipPath id="clip0_115_95">
<rect width="30" height="30" fill="white"/>
</clipPath>
</defs>
</svg>
