<svg width="20" height="21" viewBox="0 0 20 21" fill="none" xmlns="http://www.w3.org/2000/svg">
<g clip-path="url(#clip0_156_14)">
<path d="M7.47166 3.23602L8.08595 1.65031C8.18955 1.38183 8.37181 1.1509 8.60888 0.987755C8.84594 0.824614 9.12675 0.736873 9.41452 0.736023H10.5859C10.8737 0.736873 11.1545 0.824614 11.3916 0.987755C11.6287 1.1509 11.8109 1.38183 11.9145 1.65031L12.5288 3.23602L14.6145 4.43602L16.3002 4.17888C16.5809 4.14078 16.8666 4.18699 17.121 4.31163C17.3753 4.43627 17.5869 4.63372 17.7288 4.87888L18.3002 5.87888C18.4467 6.12795 18.5141 6.41557 18.4937 6.70377C18.4733 6.99197 18.366 7.26721 18.1859 7.49317L17.1431 8.82174V11.2217L18.2145 12.5503C18.3946 12.7763 18.5019 13.0515 18.5223 13.3397C18.5427 13.6279 18.4752 13.9155 18.3288 14.1646L17.7574 15.1646C17.6155 15.4098 17.4039 15.6072 17.1495 15.7318C16.8952 15.8565 16.6095 15.9027 16.3288 15.8646L14.6431 15.6075L12.5574 16.8075L11.9431 18.3932C11.8395 18.6616 11.6572 18.8926 11.4202 19.0557C11.1831 19.2189 10.9023 19.3066 10.6145 19.3075H9.41452C9.12675 19.3066 8.84594 19.2189 8.60888 19.0557C8.37181 18.8926 8.18955 18.6616 8.08595 18.3932L7.47166 16.8075L5.38595 15.6075L3.70023 15.8646C3.41954 15.9027 3.13386 15.8565 2.87949 15.7318C2.62513 15.6072 2.41355 15.4098 2.27166 15.1646L1.70023 14.1646C1.55381 13.9155 1.48634 13.6279 1.50675 13.3397C1.52715 13.0515 1.63446 12.7763 1.81452 12.5503L2.85738 11.2217V8.82174L1.78595 7.49317C1.60589 7.26721 1.49858 6.99197 1.47818 6.70377C1.45777 6.41557 1.52524 6.12795 1.67166 5.87888L2.24309 4.87888C2.38498 4.63372 2.59655 4.43627 2.85092 4.31163C3.10529 4.18699 3.39097 4.14078 3.67166 4.17888L5.35738 4.43602L7.47166 3.23602Z" stroke="#161513" stroke-linecap="round" stroke-linejoin="round"/>
<path d="M10.0001 14.3075C12.367 14.3075 14.2858 12.3887 14.2858 10.0217C14.2858 7.6548 12.367 5.73602 10.0001 5.73602C7.63313 5.73602 5.71436 7.6548 5.71436 10.0217C5.71436 12.3887 7.63313 14.3075 10.0001 14.3075Z" stroke="#161513" stroke-linecap="round" stroke-linejoin="round"/>
<path d="M10 5.73602V10.0217H14.2857" stroke="#161513" stroke-linecap="round" stroke-linejoin="round"/>
<path d="M10.0003 10.0217L6.97168 13.0503" stroke="#161513" stroke-linecap="round" stroke-linejoin="round"/>
</g>
<defs>
<clipPath id="clip0_156_14">
<rect width="20" height="20" fill="white" transform="translate(0 0.0217285)"/>
</clipPath>
</defs>
</svg>
