<svg width="61" height="60" viewBox="0 0 61 60" fill="none" xmlns="http://www.w3.org/2000/svg">
<path d="M36.9488 21.4289C39.3157 21.4289 41.2345 19.5101 41.2345 17.1431C41.2345 14.7762 39.3157 12.8574 36.9488 12.8574C34.5819 12.8574 32.6631 14.7762 32.6631 17.1431C32.6631 19.5101 34.5819 21.4289 36.9488 21.4289Z" stroke="url(#paint0_linear_400_1606)" stroke-width="1.5" stroke-linecap="round" stroke-linejoin="round"/>
<path d="M19.8059 42.856C20.9894 42.856 21.9488 41.8966 21.9488 40.7132C21.9488 39.5297 20.9894 38.5703 19.8059 38.5703C18.6225 38.5703 17.6631 39.5297 17.6631 40.7132C17.6631 41.8966 18.6225 42.856 19.8059 42.856Z" stroke="url(#paint1_linear_400_1606)" stroke-width="1.5" stroke-linecap="round" stroke-linejoin="round"/>
<path d="M19.8052 27.8566C22.1722 27.8566 24.091 25.9378 24.091 23.5709C24.091 21.2039 22.1722 19.2852 19.8052 19.2852C17.4383 19.2852 15.5195 21.2039 15.5195 23.5709C15.5195 25.9378 17.4383 27.8566 19.8052 27.8566Z" stroke="url(#paint2_linear_400_1606)" stroke-width="1.5" stroke-linecap="round" stroke-linejoin="round"/>
<path d="M41.3199 52.6283C41.2722 51.797 40.9833 50.9976 40.4885 50.3279C39.9938 49.6581 39.3147 49.1469 38.5342 48.8569C36.5958 48.2198 34.9482 46.9121 33.8877 45.1689C32.8273 43.4257 32.4234 41.3614 32.7488 39.3471C33.0742 37.3328 34.1075 35.5006 35.6629 34.18C37.2183 32.8594 39.1938 32.137 41.2342 32.1426H49.2485C50.623 32.1464 51.9784 31.8196 53.2001 31.1897C54.4219 30.5598 55.4742 29.6454 56.2684 28.5234C57.0626 27.4015 57.5753 26.1051 57.7632 24.7434C57.9512 23.3818 57.809 21.9949 57.3485 20.6997C55.6439 15.8867 52.6493 11.6348 48.6918 8.4085C44.7344 5.18218 39.9663 3.1056 34.9086 2.40561C29.8509 1.70563 24.698 2.40917 20.0131 4.43938C15.3281 6.46959 11.2913 9.74836 8.34355 13.9175C5.39584 18.0866 3.65066 22.9857 3.2987 28.0795C2.94673 33.1732 4.00151 38.2658 6.3478 42.8007C8.69409 47.3356 12.2416 51.1385 16.6028 53.7937C20.964 56.449 25.9711 57.8546 31.0771 57.8569C33.5986 57.8639 36.1087 57.5177 38.5342 56.8283C39.4251 56.5787 40.1965 56.0172 40.7079 55.2462C41.2192 54.4752 41.4365 53.5461 41.3199 52.6283V52.6283Z" stroke="url(#paint3_linear_400_1606)" stroke-width="1.5" stroke-linecap="round" stroke-linejoin="round"/>
<defs>
<linearGradient id="paint0_linear_400_1606" x1="41.2323" y1="12.8632" x2="31.0719" y2="15.6725" gradientUnits="userSpaceOnUse">
<stop stop-color="#F0FF6C"/>
<stop offset="1" stop-color="#6BFDD9"/>
</linearGradient>
<linearGradient id="paint1_linear_400_1606" x1="21.9477" y1="38.5732" x2="16.8675" y2="39.9778" gradientUnits="userSpaceOnUse">
<stop stop-color="#F0FF6C"/>
<stop offset="1" stop-color="#6BFDD9"/>
</linearGradient>
<linearGradient id="paint2_linear_400_1606" x1="24.0888" y1="19.2909" x2="13.9283" y2="22.1002" gradientUnits="userSpaceOnUse">
<stop stop-color="#F0FF6C"/>
<stop offset="1" stop-color="#6BFDD9"/>
</linearGradient>
<linearGradient id="paint3_linear_400_1606" x1="57.8299" y1="2.18012" x2="-7.08652" y2="19.7735" gradientUnits="userSpaceOnUse">
<stop stop-color="#F0FF6C"/>
<stop offset="1" stop-color="#6BFDD9"/>
</linearGradient>
</defs>
</svg>
