<svg width="30" height="30" viewBox="0 0 30 30" fill="none" xmlns="http://www.w3.org/2000/svg">
<g clip-path="url(#clip0_115_114)">
<path d="M22.0898 0H7.91016C3.5415 0 0 3.5415 0 7.91016V22.0898C0 26.4585 3.5415 30 7.91016 30H22.0898C26.4585 30 30 26.4585 30 22.0898V7.91016C30 3.5415 26.4585 0 22.0898 0Z" fill="#00005B"/>
<path d="M12.2841 19.0923H7.8708L7.10029 21.5878H3.65967L8.55928 8.229H11.5868L16.5228 21.5878H13.064L12.2841 19.0923ZM8.64189 16.6062H11.5136L10.0733 11.9726L8.64189 16.6062ZM22.1565 21.7718C20.6337 21.7718 19.4009 21.3177 18.4593 20.4095C17.5171 19.5013 17.0466 18.3194 17.0466 16.8634V16.6067C17.0466 15.5913 17.2347 14.6954 17.6108 13.9185C17.987 13.1415 18.536 12.5409 19.2579 12.1155C19.9798 11.6907 20.8358 11.478 21.8267 11.478C23.2212 11.478 24.3222 11.911 25.1296 12.7765C25.937 13.6419 26.3407 14.8483 26.3407 16.3958V17.5976H20.1937C20.3038 18.1542 20.5452 18.5919 20.9185 18.9095C21.2917 19.2276 21.7745 19.3864 22.3681 19.3864C23.3466 19.3864 24.1112 19.0442 24.662 18.3587L26.0747 20.0286C25.6892 20.5606 25.1437 20.9843 24.437 21.2995C23.7304 21.6142 22.9704 21.7718 22.1571 21.7718H22.1565ZM21.8079 13.8628C20.9026 13.8628 20.3642 14.4622 20.1931 15.661H23.3126V15.4226C23.3249 14.9269 23.1995 14.5437 22.9364 14.2712C22.6733 13.9993 22.2972 13.8628 21.8079 13.8628Z" fill="#9999FF"/>
</g>
<defs>
<clipPath id="clip0_115_114">
<rect width="30" height="30" fill="white"/>
</clipPath>
</defs>
</svg>
