<svg width="60" height="60" viewBox="0 0 60 60" fill="none" xmlns="http://www.w3.org/2000/svg">
<path d="M6.42878 25.7144H10.7145C11.2828 25.7144 11.8279 25.9401 12.2297 26.342C12.6316 26.7438 12.8574 27.2889 12.8574 27.8572V38.5715C12.8574 39.1398 12.6316 39.6849 12.2297 40.0867C11.8279 40.4886 11.2828 40.7144 10.7145 40.7144H6.42878C5.29214 40.7144 4.20205 40.2628 3.39832 39.4591C2.5946 38.6554 2.14307 37.5653 2.14307 36.4286V30.0001C2.14307 28.8634 2.5946 27.7733 3.39832 26.9696C4.20205 26.1659 5.29214 25.7144 6.42878 25.7144V25.7144Z" stroke="#161513" stroke-width="1.5" stroke-linecap="round" stroke-linejoin="round"/>
<path d="M53.5717 40.7144H49.286C48.7177 40.7144 48.1726 40.4886 47.7708 40.0867C47.3689 39.6849 47.1431 39.1398 47.1431 38.5715V27.8572C47.1431 27.2889 47.3689 26.7438 47.7708 26.342C48.1726 25.9401 48.7177 25.7144 49.286 25.7144H53.5717C54.7083 25.7144 55.7984 26.1659 56.6022 26.9696C57.4059 27.7733 57.8574 28.8634 57.8574 30.0001V36.4286C57.8574 37.5653 57.4059 38.6554 56.6022 39.4591C55.7984 40.2628 54.7083 40.7144 53.5717 40.7144V40.7144Z" stroke="#161513" stroke-width="1.5" stroke-linecap="round" stroke-linejoin="round"/>
<path d="M40.7144 52.5001C42.9876 52.5001 45.1678 51.597 46.7753 49.9896C48.3827 48.3821 49.2858 46.2019 49.2858 43.9286V40.7144" stroke="#161513" stroke-width="1.5" stroke-linecap="round" stroke-linejoin="round"/>
<path d="M35.3575 47.1431C36.7783 47.1431 38.1409 47.7075 39.1456 48.7121C40.1502 49.7168 40.7146 51.0794 40.7146 52.5002C40.7146 53.921 40.1502 55.2836 39.1456 56.2883C38.1409 57.2929 36.7783 57.8574 35.3575 57.8574H28.9289C27.5081 57.8574 26.1455 57.2929 25.1408 56.2883C24.1362 55.2836 23.5718 53.921 23.5718 52.5002C23.5718 51.0794 24.1362 49.7168 25.1408 48.7121C26.1455 47.7075 27.5081 47.1431 28.9289 47.1431H35.3575Z" stroke="#161513" stroke-width="1.5" stroke-linecap="round" stroke-linejoin="round"/>
<path d="M10.7144 25.7145V21.4288C10.7144 16.3139 12.7462 11.4085 16.363 7.79172C19.9798 4.17495 24.8852 2.14307 30.0001 2.14307C35.115 2.14307 40.0204 4.17495 43.6371 7.79172C47.2539 11.4085 49.2858 16.3139 49.2858 21.4288V25.7145" stroke="#161513" stroke-width="1.5" stroke-linecap="round" stroke-linejoin="round"/>
<path d="M23.5718 17.1431V23.5716" stroke="#161513" stroke-width="1.5" stroke-linecap="round" stroke-linejoin="round"/>
<path d="M36.4287 17.1431V23.5716" stroke="#161513" stroke-width="1.5" stroke-linecap="round" stroke-linejoin="round"/>
<path d="M23.5718 32.1431C23.5718 37.8431 36.4289 37.8431 36.4289 32.1431" stroke="#161513" stroke-width="1.5" stroke-linecap="round" stroke-linejoin="round"/>
</svg>
