<svg width="24" height="24" viewBox="0 0 24 24" fill="none" xmlns="http://www.w3.org/2000/svg">
<g clip-path="url(#clip0_115_1600)">
<path d="M15.017 22.286C16.0727 22.9671 17.3307 23.2639 18.5795 23.1265C19.8283 22.9892 20.9917 22.426 21.8741 21.5318L22.6456 20.7775C22.9838 20.4315 23.1731 19.967 23.1731 19.4832C23.1731 18.9994 22.9838 18.5348 22.6456 18.1889L19.3713 14.9489C19.0282 14.6118 18.5665 14.4229 18.0856 14.4229C17.6046 14.4229 17.1429 14.6118 16.7998 14.9489V14.9489C16.4539 15.2871 15.9893 15.4765 15.5056 15.4765C15.0218 15.4765 14.5572 15.2871 14.2113 14.9489L9.06841 9.80604C8.89685 9.63697 8.76061 9.43548 8.66762 9.21328C8.57463 8.99109 8.52674 8.75262 8.52674 8.51175C8.52674 8.27088 8.57463 8.03242 8.66762 7.81022C8.76061 7.58803 8.89685 7.38653 9.06841 7.21747V7.21747C9.40553 6.87443 9.59444 6.41271 9.59444 5.93175C9.59444 5.45079 9.40553 4.98907 9.06841 4.64604L5.81127 1.38889C5.46534 1.05069 5.00077 0.861328 4.51698 0.861328C4.0332 0.861328 3.56863 1.05069 3.2227 1.38889L2.46841 2.16032C1.57415 3.04274 1.01098 4.20615 0.873617 5.45495C0.736249 6.70375 1.03305 7.96176 1.71413 9.01747C5.26277 14.2473 9.77802 18.7509 15.017 22.286V22.286Z" stroke="#161513" stroke-width="1.5" stroke-linecap="round" stroke-linejoin="round"/>
</g>
<defs>
<clipPath id="clip0_115_1600">
<rect width="24" height="24" fill="white"/>
</clipPath>
</defs>
</svg>
