<svg width="24" height="25" viewBox="0 0 24 25" fill="none" xmlns="http://www.w3.org/2000/svg">
<g clip-path="url(#clip0_400_2303)">
<path d="M19.7147 8.59319C19.7147 12.8618 12.0004 23.1646 12.0004 23.1646C12.0004 23.1646 4.28613 12.8618 4.28613 8.59319C4.28613 6.54724 5.09889 4.58508 6.54559 3.13837C7.9923 1.69166 9.95446 0.878906 12.0004 0.878906C14.0464 0.878906 16.0085 1.69166 17.4552 3.13837C18.902 4.58508 19.7147 6.54724 19.7147 8.59319V8.59319Z" stroke="#163031" stroke-width="1.5" stroke-linecap="round" stroke-linejoin="round"/>
<path d="M12.0011 11.1643C13.4213 11.1643 14.5725 10.0131 14.5725 8.59291C14.5725 7.17275 13.4213 6.02148 12.0011 6.02148C10.581 6.02148 9.42969 7.17275 9.42969 8.59291C9.42969 10.0131 10.581 11.1643 12.0011 11.1643Z" stroke="#163031" stroke-width="1.5" stroke-linecap="round" stroke-linejoin="round"/>
</g>
<defs>
<clipPath id="clip0_400_2303">
<rect width="24" height="24" fill="white" transform="translate(0 0.0214844)"/>
</clipPath>
</defs>
</svg>
