<svg width="20" height="21" viewBox="0 0 20 21" fill="none" xmlns="http://www.w3.org/2000/svg">
<path d="M15.1998 2.22174H4.79982C4.56005 2.22832 4.3252 2.29124 4.11425 2.4054C3.9033 2.51956 3.72218 2.68176 3.58553 2.87888L0.985533 6.47888C0.79247 6.7517 0.696053 7.08119 0.711582 7.41505C0.72711 7.74891 0.853694 8.06802 1.07125 8.32174L8.87125 17.3075C9.00478 17.4795 9.17589 17.6188 9.3715 17.7146C9.5671 17.8104 9.78202 17.8602 9.99982 17.8602C10.2176 17.8602 10.4325 17.8104 10.6281 17.7146C10.8237 17.6188 10.9949 17.4795 11.1284 17.3075L18.9284 8.32174C19.1459 8.06802 19.2725 7.74891 19.2881 7.41505C19.3036 7.08119 19.2072 6.7517 19.0141 6.47888L16.4141 2.87888C16.2775 2.68176 16.0963 2.51956 15.8854 2.4054C15.6744 2.29124 15.4396 2.22832 15.1998 2.22174V2.22174Z" stroke="#161513" stroke-linecap="round" stroke-linejoin="round"/>
<path d="M9.2572 2.20746L5.77148 7.60746L10.0001 17.8217" stroke="#161513" stroke-linecap="round" stroke-linejoin="round"/>
<path d="M10.7857 2.20746L14.2571 7.60746L10 17.8217" stroke="#161513" stroke-linecap="round" stroke-linejoin="round"/>
<path d="M0.742676 7.60748H19.257" stroke="#161513" stroke-linecap="round" stroke-linejoin="round"/>
</svg>
