<svg width="30" height="30" viewBox="0 0 30 30" fill="none" xmlns="http://www.w3.org/2000/svg">
<path d="M3.00267 27.5853L2.00116 2.87522C1.96809 2.05915 2.64385 1.36753 3.52408 1.31659L26.2221 0.00298218C27.118 -0.0488701 27.8898 0.581648 27.9458 1.41128C27.9479 1.44254 27.9489 1.47385 27.9489 1.50517V28.4312C27.9489 29.2625 27.2212 29.9363 26.3235 29.9363C26.2992 29.9363 26.2748 29.9358 26.2505 29.9348L4.55405 29.0325C3.70906 28.9974 3.03439 28.368 3.00267 27.5853V27.5853Z" fill="#FF4785"/>
<mask id="mask0_330_12" style="mask-type:luminance" maskUnits="userSpaceOnUse" x="2" y="0" width="26" height="30">
<path d="M3.00267 27.5853L2.00116 2.87522C1.96809 2.05915 2.64385 1.36753 3.52408 1.31659L26.2221 0.00298218C27.118 -0.0488701 27.8898 0.581648 27.9458 1.41128C27.9479 1.44254 27.9489 1.47385 27.9489 1.50517V28.4312C27.9489 29.2625 27.2212 29.9363 26.3235 29.9363C26.2992 29.9363 26.2748 29.9358 26.2505 29.9348L4.55405 29.0325C3.70906 28.9974 3.03439 28.368 3.00267 27.5853V27.5853Z" fill="white"/>
</mask>
<g mask="url(#mask0_330_12)">
<path d="M21.1614 3.67965L21.3164 0.226785L24.4335 0L24.5678 3.56082C24.5725 3.68475 24.4678 3.78872 24.334 3.79304C24.2767 3.7949 24.2205 3.77789 24.1754 3.74503L22.9734 2.86819L21.5502 3.86786C21.4435 3.9428 21.2914 3.92346 21.2105 3.82467C21.1764 3.78308 21.159 3.73181 21.1614 3.67965ZM17.1749 11.2834C17.1749 11.869 21.4346 11.5883 22.0064 11.177C22.0064 7.18935 19.6957 5.0939 15.4643 5.0939C11.233 5.0939 8.86219 7.22196 8.86219 10.414C8.86219 15.9736 16.9648 16.08 16.9648 19.1125C16.9648 19.9637 16.5147 20.4691 15.5243 20.4691C14.2339 20.4691 13.7238 19.8589 13.7838 17.784C13.7838 17.3339 8.86219 17.1936 8.71214 17.784C8.33006 22.8121 11.7131 24.2624 15.5844 24.2624C19.3356 24.2624 22.2765 22.411 22.2765 19.0593C22.2765 13.1007 14.0539 13.2603 14.0539 10.3076C14.0539 9.1106 15.0142 8.951 15.5844 8.951C16.1846 8.951 17.2649 9.04896 17.1749 11.2834Z" fill="white"/>
</g>
</svg>
