<svg width="30" height="30" viewBox="0 0 30 30" fill="none" xmlns="http://www.w3.org/2000/svg">
<path d="M15.0352 15C15.0352 12.2386 17.2737 10 20.0351 10C22.7965 10 25.0351 12.2386 25.0351 15C25.0351 17.7614 22.7965 20 20.0351 20C17.2737 20 15.0352 17.7614 15.0352 15Z" fill="#00BCFF"/>
<path d="M5.03516 25C5.03516 22.2386 7.27373 20 10.0351 20L12.6997 18.5933L15.0351 20V25C15.0351 27.7615 12.7965 30 10.0351 30C7.27373 30 5.03516 27.7614 5.03516 25Z" fill="#00CF7F"/>
<path d="M15.0352 0L12.3145 4.72676L15.0352 9.99996H19.965C22.7265 9.99996 24.965 7.76139 24.965 4.99998C24.965 2.23857 22.7264 0 19.965 0H15.0352Z" fill="#FF7361"/>
<path d="M4.96484 4.99998C4.96484 7.76139 7.20342 9.99996 9.96482 9.99996L12.6172 11.0244L15.0349 9.99996V0H9.96477C7.20342 0 4.96484 2.23857 4.96484 4.99998Z" fill="#FF4D12"/>
<path d="M5.03516 15C5.03516 17.7615 7.27373 20 10.0351 20H15.0351V10H10.0351C7.27373 10 5.03516 12.2386 5.03516 15Z" fill="#B659FF"/>
</svg>
