<svg width="30" height="31" viewBox="0 0 30 31" fill="none" xmlns="http://www.w3.org/2000/svg">
<g clip-path="url(#clip0_400_928)">
<path d="M11.207 5.00781L12.1284 2.62924C12.2838 2.22652 12.5572 1.88012 12.9128 1.63541C13.2684 1.3907 13.6896 1.25909 14.1213 1.25781H15.8784C16.3101 1.25909 16.7313 1.3907 17.0869 1.63541C17.4425 1.88012 17.7159 2.22652 17.8713 2.62924L18.7927 5.00781L21.9213 6.80781L24.4499 6.4221C24.8709 6.36495 25.2994 6.43426 25.681 6.62122C26.0625 6.80818 26.3799 7.10435 26.5927 7.4721L27.4499 8.9721C27.6695 9.3457 27.7707 9.77713 27.7401 10.2094C27.7095 10.6417 27.5485 11.0546 27.2784 11.3935L25.7142 13.3864V16.9864L27.3213 18.9792C27.5914 19.3182 27.7523 19.731 27.783 20.1633C27.8136 20.5956 27.7124 21.0271 27.4927 21.4007L26.6356 22.9007C26.4227 23.2684 26.1054 23.5646 25.7238 23.7515C25.3423 23.9385 24.9138 24.0078 24.4927 23.9507L21.9642 23.565L18.8356 25.365L17.9141 27.7435C17.7588 28.1462 17.4854 28.4926 17.1298 28.7374C16.7742 28.9821 16.353 29.1137 15.9213 29.115H14.1213C13.6896 29.1137 13.2684 28.9821 12.9128 28.7374C12.5572 28.4926 12.2838 28.1462 12.1284 27.7435L11.207 25.365L8.07844 23.565L5.54986 23.9507C5.12883 24.0078 4.70031 23.9385 4.31875 23.7515C3.9372 23.5646 3.61984 23.2684 3.40701 22.9007L2.54986 21.4007C2.33022 21.0271 2.22903 20.5956 2.25963 20.1633C2.29024 19.731 2.45121 19.3182 2.72129 18.9792L4.28558 16.9864V13.3864L2.67843 11.3935C2.40835 11.0546 2.24738 10.6417 2.21678 10.2094C2.18617 9.77713 2.28737 9.3457 2.50701 8.9721L3.36415 7.4721C3.57699 7.10435 3.89434 6.80818 4.2759 6.62122C4.65745 6.43426 5.08597 6.36495 5.50701 6.4221L8.03558 6.80781L11.207 5.00781Z" stroke="url(#paint0_linear_400_928)" stroke-linecap="round" stroke-linejoin="round"/>
<path d="M14.9999 21.615C18.5503 21.615 21.4284 18.7368 21.4284 15.1864C21.4284 11.636 18.5503 8.75781 14.9999 8.75781C11.4495 8.75781 8.57129 11.636 8.57129 15.1864C8.57129 18.7368 11.4495 21.615 14.9999 21.615Z" stroke="url(#paint1_linear_400_928)" stroke-linecap="round" stroke-linejoin="round"/>
<path d="M15 8.75781V15.1864H21.4286" stroke="url(#paint2_linear_400_928)" stroke-linecap="round" stroke-linejoin="round"/>
<path d="M14.9999 15.1875L10.457 19.7304" stroke="url(#paint3_linear_400_928)" stroke-linecap="round" stroke-linejoin="round"/>
</g>
<defs>
<linearGradient id="paint0_linear_400_928" x1="27.7818" y1="1.27659" x2="-2.87861" y2="9.05996" gradientUnits="userSpaceOnUse">
<stop stop-color="#F0FF6C"/>
<stop offset="1" stop-color="#6BFDD9"/>
</linearGradient>
<linearGradient id="paint1_linear_400_928" x1="21.4252" y1="8.76648" x2="6.18445" y2="12.9804" gradientUnits="userSpaceOnUse">
<stop stop-color="#F0FF6C"/>
<stop offset="1" stop-color="#6BFDD9"/>
</linearGradient>
<linearGradient id="paint2_linear_400_928" x1="21.4269" y1="8.76214" x2="13.8066" y2="10.8691" gradientUnits="userSpaceOnUse">
<stop stop-color="#F0FF6C"/>
<stop offset="1" stop-color="#6BFDD9"/>
</linearGradient>
<linearGradient id="paint3_linear_400_928" x1="14.9987" y1="15.1906" x2="9.61368" y2="16.6795" gradientUnits="userSpaceOnUse">
<stop stop-color="#F0FF6C"/>
<stop offset="1" stop-color="#6BFDD9"/>
</linearGradient>
<clipPath id="clip0_400_928">
<rect width="30" height="30" fill="white" transform="translate(0 0.1875)"/>
</clipPath>
</defs>
</svg>
