<svg width="40" height="40" viewBox="0 0 40 40" fill="none" xmlns="http://www.w3.org/2000/svg">
<g clip-path="url(#clip0_362_3361)">
<path d="M25.0283 37.1429C26.7878 38.278 28.8845 38.7727 30.9658 38.5438C33.0472 38.3148 34.9862 37.3762 36.4569 35.8858L37.7426 34.6286C38.3063 34.0521 38.6219 33.2778 38.6219 32.4715C38.6219 31.6652 38.3063 30.8909 37.7426 30.3143L32.2854 24.9143C31.7137 24.3525 30.9442 24.0376 30.1426 24.0376C29.341 24.0376 28.5715 24.3525 27.9997 24.9143V24.9143C27.4232 25.478 26.6489 25.7936 25.8426 25.7936C25.0363 25.7936 24.262 25.478 23.6854 24.9143L15.114 16.3429C14.8281 16.0611 14.601 15.7253 14.446 15.355C14.291 14.9847 14.2112 14.5872 14.2112 14.1858C14.2112 13.7843 14.291 13.3869 14.446 13.0165C14.601 12.6462 14.8281 12.3104 15.114 12.0286V12.0286C15.6759 11.4569 15.9907 10.6874 15.9907 9.88576C15.9907 9.08416 15.6759 8.31463 15.114 7.74291L9.68545 2.31434C9.1089 1.75066 8.33461 1.43506 7.5283 1.43506C6.72199 1.43506 5.94771 1.75066 5.37116 2.31434L4.11402 3.60005C2.62358 5.07074 1.68497 7.00977 1.45603 9.0911C1.22708 11.1724 1.72176 13.2691 2.85688 15.0286C8.77129 23.745 16.2967 31.251 25.0283 37.1429V37.1429Z" stroke="url(#paint0_linear_362_3361)" stroke-width="1.5" stroke-linecap="round" stroke-linejoin="round"/>
</g>
<defs>
<linearGradient id="paint0_linear_362_3361" x1="38.6124" y1="1.4601" x2="-5.49871" y2="13.6751" gradientUnits="userSpaceOnUse">
<stop stop-color="#F0FF6C"/>
<stop offset="1" stop-color="#6BFDD9"/>
</linearGradient>
<clipPath id="clip0_362_3361">
<rect width="40" height="40" fill="white"/>
</clipPath>
</defs>
</svg>
