<svg width="30" height="30" viewBox="0 0 30 30" fill="none" xmlns="http://www.w3.org/2000/svg">
<g clip-path="url(#clip0_115_151)">
<path d="M30 2.71951C30 1.21758 28.7824 0 27.2805 0H2.71951C1.21758 0 0 1.21758 0 2.71951V27.2805C0 28.7824 1.21758 30 2.71951 30H27.2805C28.7824 30 30 28.7824 30 27.2805V2.71951ZM9.99633 5.85604C10.9937 5.85604 11.829 6.6375 11.829 7.66125C11.829 8.68576 10.9937 9.4674 9.99633 9.4674C8.99918 9.4674 8.16387 8.68576 8.16387 7.66125C8.16387 6.63744 8.99918 5.85604 9.99633 5.85604ZM22.2571 23.1307C20.3975 23.1307 19.5084 22.0263 19.5084 20.5166C19.5084 20.0859 19.562 19.6273 19.6968 19.1691L20.5863 15.9891C20.694 15.6386 20.7211 15.3155 20.7211 15.0188C20.7211 13.9951 20.1012 13.375 19.104 13.375C17.8372 13.375 17.0017 14.2841 16.5706 16.036L14.8456 22.9546H11.8273L12.369 20.7803C11.4819 22.2377 10.2497 23.1404 8.72971 23.1404C6.89707 23.1404 6.03463 22.0847 6.03463 20.4943C6.03463 20.0907 6.08865 19.5959 6.19635 19.1377L7.57078 13.5227H5.44189L6.08871 11.1364H11.2092L9.18773 19.1548C9.05297 19.6672 8.99912 20.0923 8.99912 20.3882C8.99912 20.901 9.25148 21.0509 9.64617 21.1399C9.88647 21.1937 11.8017 21.1561 12.8445 18.8384L14.172 13.5227H12.0159L12.6628 11.1364H17.2712L16.6784 13.8456C17.4868 12.3362 19.1039 10.9021 20.6939 10.9021C22.3918 10.9021 23.7933 12.1116 23.7933 14.4294C23.7933 15.022 23.7124 15.6672 23.4969 16.3946L22.6343 19.4929C22.5537 19.817 22.4995 20.0862 22.4995 20.3287C22.4995 20.8675 22.7153 21.1368 23.1196 21.1368C23.5238 21.1368 24.0359 20.8397 24.6288 19.1965L25.8145 19.6543C25.1138 22.107 23.8472 23.1307 22.2571 23.1307Z" fill="#FF3366"/>
</g>
<defs>
<clipPath id="clip0_115_151">
<rect width="30" height="30" fill="white"/>
</clipPath>
</defs>
</svg>
