<svg width="50" height="51" viewBox="0 0 50 51" fill="none" xmlns="http://www.w3.org/2000/svg">
<circle cx="25" cy="25.332" r="25" fill="#163031"/>
<path d="M34.5628 30.2023C34.5628 31.5565 34.0256 32.7849 33.1564 33.6715C32.2892 34.5604 31.0878 35.1095 29.7634 35.1095C27.1124 35.1095 24.964 32.9128 24.964 30.2023C24.964 28.8481 24.4269 27.6196 23.5576 26.733C22.6905 25.8442 21.489 25.295 20.1646 25.295C17.5136 25.295 15.3652 23.0983 15.3652 20.3877C15.3652 19.0336 15.9023 17.8051 16.7716 16.9185C17.6387 16.0296 18.8402 15.4805 20.1646 15.4805C21.489 15.4805 22.6905 16.0296 23.5576 16.9185C24.4269 17.8051 24.964 19.0336 24.964 20.3877C24.964 23.0983 27.1124 25.295 29.7634 25.295C31.0878 25.295 32.2892 25.8442 33.1564 26.733C34.0256 27.6196 34.5628 28.8481 34.5628 30.2023Z" fill="url(#paint0_linear_400_8021)"/>
<path d="M34.5633 30.2023C34.5633 31.5565 34.0262 32.7849 33.1569 33.6715C33.0146 33.8193 32.8614 33.9561 32.7018 34.0818C33.0793 33.3826 33.295 32.5754 33.295 31.7197C33.295 30.3655 32.7579 29.137 31.8886 28.2504C31.0215 27.3616 29.82 26.8124 28.4956 26.8124C25.8446 26.8124 23.6962 24.6157 23.6962 21.9051C23.6962 20.5509 23.1591 19.3225 22.2898 18.4359C21.4227 17.547 20.2213 16.9979 18.8969 16.9979C17.7903 16.9979 16.77 17.3816 15.959 18.0256C16.1768 17.6176 16.4529 17.2449 16.7722 16.9185C17.6393 16.0296 18.8408 15.4805 20.1652 15.4805C21.4896 15.4805 22.6911 16.0296 23.5582 16.9185C24.4275 17.8051 24.9646 19.0336 24.9646 20.3877C24.9646 23.0983 27.113 25.295 29.7639 25.295C31.0884 25.295 32.2898 25.8442 33.1569 26.733C34.0262 27.6196 34.5633 28.8481 34.5633 30.2023Z" fill="url(#paint1_linear_400_8021)"/>
<path d="M27.807 22.7093C26.8704 21.7517 26.4006 20.4948 26.4023 19.2394C26.4008 17.984 26.8706 16.7271 27.807 15.7695C29.6814 13.8529 32.7198 13.8529 34.5943 15.7695C35.5309 16.7271 36.0005 17.984 35.9989 19.2394C36.0005 20.4948 35.5307 21.7517 34.5943 22.7093C33.6577 23.667 32.4284 24.1471 31.2006 24.1456C29.9729 24.1473 28.7436 23.667 27.807 22.7093Z" fill="url(#paint2_linear_400_8021)"/>
<path d="M35.9994 19.2393C35.9994 20.5935 35.4623 21.822 34.593 22.7086C34.1832 23.1276 33.7 23.4717 33.165 23.7165C33.9222 22.8497 34.3816 21.7051 34.3816 20.4523C34.3816 19.1004 33.8445 17.8697 32.9752 16.9831C32.1081 16.0964 30.9066 15.5451 29.5822 15.5451C28.8834 15.5451 28.2168 15.6995 27.6172 15.9773C27.6776 15.9068 27.7423 15.8362 27.807 15.77C28.6741 14.8834 29.8756 14.332 31.2 14.332C32.5244 14.332 33.7259 14.8834 34.593 15.77C35.4623 16.6566 35.9994 17.8873 35.9994 19.2393Z" fill="url(#paint3_linear_400_8021)"/>
<path d="M15.4047 34.8929C14.4681 33.9353 13.9983 32.6784 14 31.423C13.9985 30.1676 14.4683 28.9107 15.4047 27.9531C17.2791 26.0365 20.3175 26.0365 22.1919 27.9531C23.1285 28.9107 23.5981 30.1676 23.5966 31.423C23.5981 32.6784 23.1283 33.9353 22.1919 34.8929C21.2554 35.8506 20.0261 36.3307 18.7983 36.3292C17.5705 36.3309 16.3412 35.8506 15.4047 34.8929Z" fill="url(#paint4_linear_400_8021)"/>
<path d="M23.597 31.4229C23.597 32.7771 23.0599 34.0055 22.1907 34.8922C21.7808 35.3112 21.2976 35.6553 20.7627 35.9001C21.5198 35.0333 21.9793 33.8887 21.9793 32.6359C21.9793 31.2839 21.4422 30.0533 20.5729 29.1667C19.7058 28.28 18.5043 27.7287 17.1799 27.7287C16.481 27.7287 15.8145 27.883 15.2148 28.1609C15.2752 28.0904 15.34 28.0198 15.4047 27.9536C16.2718 27.067 17.4732 26.5156 18.7977 26.5156C20.1221 26.5156 21.3235 27.067 22.1907 27.9536C23.0599 28.8402 23.597 30.0709 23.597 31.4229Z" fill="url(#paint5_linear_400_8021)"/>
<defs>
<linearGradient id="paint0_linear_400_8021" x1="34.5579" y1="15.4937" x2="11.7309" y2="21.6664" gradientUnits="userSpaceOnUse">
<stop stop-color="#F0FF6C"/>
<stop offset="1" stop-color="#6BFDD9"/>
</linearGradient>
<linearGradient id="paint1_linear_400_8021" x1="34.5586" y1="15.493" x2="12.5057" y2="21.5914" gradientUnits="userSpaceOnUse">
<stop stop-color="#F0FF6C"/>
<stop offset="1" stop-color="#6BFDD9"/>
</linearGradient>
<linearGradient id="paint2_linear_400_8021" x1="35.9965" y1="14.3386" x2="24.5854" y2="17.424" gradientUnits="userSpaceOnUse">
<stop stop-color="#F0FF6C"/>
<stop offset="1" stop-color="#6BFDD9"/>
</linearGradient>
<linearGradient id="paint3_linear_400_8021" x1="35.9973" y1="14.3384" x2="25.9163" y2="16.8279" gradientUnits="userSpaceOnUse">
<stop stop-color="#F0FF6C"/>
<stop offset="1" stop-color="#6BFDD9"/>
</linearGradient>
<linearGradient id="paint4_linear_400_8021" x1="23.5942" y1="26.5222" x2="12.183" y2="29.6076" gradientUnits="userSpaceOnUse">
<stop stop-color="#F0FF6C"/>
<stop offset="1" stop-color="#6BFDD9"/>
</linearGradient>
<linearGradient id="paint5_linear_400_8021" x1="23.5949" y1="26.5219" x2="13.514" y2="29.0115" gradientUnits="userSpaceOnUse">
<stop stop-color="#F0FF6C"/>
<stop offset="1" stop-color="#6BFDD9"/>
</linearGradient>
</defs>
</svg>
