<svg width="173" height="50" viewBox="0 0 173 50" fill="none" xmlns="http://www.w3.org/2000/svg">
<path d="M66.1 36V15H75.7C77.62 15 79.27 15.31 80.65 15.93C82.05 16.55 83.13 17.45 83.89 18.63C84.65 19.79 85.03 21.17 85.03 22.77C85.03 24.35 84.65 25.72 83.89 26.88C83.13 28.04 82.05 28.94 80.65 29.58C79.27 30.2 77.62 30.51 75.7 30.51H69.4L72.04 27.93V36H66.1ZM72.04 28.56L69.4 25.83H75.34C76.58 25.83 77.5 25.56 78.1 25.02C78.72 24.48 79.03 23.73 79.03 22.77C79.03 21.79 78.72 21.03 78.1 20.49C77.5 19.95 76.58 19.68 75.34 19.68H69.4L72.04 16.95V28.56ZM87.9491 36V19.74H93.6491V36H87.9491ZM90.7991 17.94C89.7591 17.94 88.9191 17.65 88.2791 17.07C87.6391 16.49 87.3191 15.77 87.3191 14.91C87.3191 14.05 87.6391 13.33 88.2791 12.75C88.9191 12.17 89.7591 11.88 90.7991 11.88C91.8391 11.88 92.6791 12.16 93.3191 12.72C93.9591 13.26 94.2791 13.96 94.2791 14.82C94.2791 15.72 93.9591 16.47 93.3191 17.07C92.6991 17.65 91.8591 17.94 90.7991 17.94ZM95.4634 36L102.933 26.19L102.813 29.43L95.6434 19.74H102.063L106.083 25.47L103.683 25.59L107.943 19.74H113.973L106.803 29.22V26.1L114.183 36H107.673L103.473 29.88L105.873 30.21L101.643 36H95.4634ZM115.928 36V19.74H121.628V36H115.928ZM118.778 17.94C117.738 17.94 116.898 17.65 116.258 17.07C115.618 16.49 115.298 15.77 115.298 14.91C115.298 14.05 115.618 13.33 116.258 12.75C116.898 12.17 117.738 11.88 118.778 11.88C119.818 11.88 120.658 12.16 121.298 12.72C121.938 13.26 122.258 13.96 122.258 14.82C122.258 15.72 121.938 16.47 121.298 17.07C120.678 17.65 119.838 17.94 118.778 17.94ZM133.492 36.27C131.712 36.27 130.132 35.91 128.752 35.19C127.372 34.47 126.282 33.48 125.482 32.22C124.702 30.94 124.312 29.48 124.312 27.84C124.312 26.2 124.702 24.75 125.482 23.49C126.282 22.23 127.372 21.25 128.752 20.55C130.132 19.83 131.712 19.47 133.492 19.47C135.272 19.47 136.852 19.83 138.232 20.55C139.632 21.25 140.722 22.23 141.502 23.49C142.282 24.75 142.672 26.2 142.672 27.84C142.672 29.48 142.282 30.94 141.502 32.22C140.722 33.48 139.632 34.47 138.232 35.19C136.852 35.91 135.272 36.27 133.492 36.27ZM133.492 31.74C134.152 31.74 134.732 31.59 135.232 31.29C135.752 30.99 136.162 30.55 136.462 29.97C136.762 29.37 136.912 28.66 136.912 27.84C136.912 27.02 136.762 26.33 136.462 25.77C136.162 25.19 135.752 24.75 135.232 24.45C134.732 24.15 134.152 24 133.492 24C132.852 24 132.272 24.15 131.752 24.45C131.252 24.75 130.842 25.19 130.522 25.77C130.222 26.33 130.072 27.02 130.072 27.84C130.072 28.66 130.222 29.37 130.522 29.97C130.842 30.55 131.252 30.99 131.752 31.29C132.272 31.59 132.852 31.74 133.492 31.74ZM155.902 19.47C157.162 19.47 158.302 19.73 159.322 20.25C160.342 20.75 161.142 21.53 161.722 22.59C162.322 23.65 162.622 25.02 162.622 26.7V36H156.922V27.63C156.922 26.47 156.682 25.63 156.202 25.11C155.742 24.57 155.092 24.3 154.252 24.3C153.652 24.3 153.102 24.44 152.602 24.72C152.102 24.98 151.712 25.39 151.432 25.95C151.152 26.51 151.012 27.24 151.012 28.14V36H145.312V19.74H150.742V24.36L149.692 23.01C150.312 21.83 151.162 20.95 152.242 20.37C153.322 19.77 154.542 19.47 155.902 19.47Z" fill="#F8F8F8"/>
<path d="M168.601 36.27C167.641 36.27 166.831 35.95 166.171 35.31C165.511 34.67 165.181 33.86 165.181 32.88C165.181 31.86 165.511 31.05 166.171 30.45C166.831 29.83 167.641 29.52 168.601 29.52C169.561 29.52 170.371 29.83 171.031 30.45C171.691 31.05 172.021 31.86 172.021 32.88C172.021 33.86 171.691 34.67 171.031 35.31C170.371 35.95 169.561 36.27 168.601 36.27Z" fill="url(#paint0_linear_1730_1368)"/>
<circle cx="25" cy="25" r="25" fill="url(#paint1_linear_1730_1368)"/>
<path fill-rule="evenodd" clip-rule="evenodd" d="M35.9456 19.6443C35.981 19.4038 35.9994 19.1577 35.9994 18.9073C35.9994 18.4724 35.9438 18.05 35.8395 17.6476C35.6301 16.8382 35.2146 16.0727 34.5943 15.4384C34.1084 14.9416 33.5442 14.5735 32.9424 14.3343C32.4021 14.1186 31.8143 14 31.2 14C30.4233 14 29.6888 14.1897 29.0393 14.5254C28.7538 14.6726 28.4797 14.8509 28.2218 15.0602C28.0764 15.178 27.9379 15.3042 27.807 15.438C27.7761 15.4696 27.7451 15.5023 27.7147 15.5354C26.8398 16.4801 26.4009 17.6949 26.4023 18.9084C26.4006 20.1637 26.8704 21.4207 27.807 22.3783C28.7436 23.3359 29.9729 23.8163 31.2006 23.8145C32.4284 23.8161 33.6577 23.3359 34.5943 22.3783C35.3472 21.6083 35.7984 20.6449 35.9456 19.6443ZM29.7944 24.9641C31.1068 24.9724 32.2965 25.5199 33.1569 26.4019C34.0262 27.2886 34.5633 28.517 34.5633 29.8712C34.5633 31.2254 34.0262 32.4539 33.1569 33.3405C33.0261 33.4763 32.8862 33.6027 32.7405 33.7199C31.9228 34.3829 30.8874 34.7785 29.7634 34.7785C27.1124 34.7785 24.964 32.5818 24.964 29.8712C24.964 28.517 24.4269 27.2886 23.5576 26.4019C22.6905 25.5131 21.489 24.964 20.1646 24.964C17.5136 24.964 15.3652 22.7673 15.3652 20.0567C15.3652 18.7025 15.9023 17.474 16.7716 16.5874C17.6387 15.6986 18.8402 15.1494 20.1646 15.1494C21.489 15.1494 22.6905 15.6986 23.5576 16.5874C24.4269 17.474 24.964 18.7025 24.964 20.0567C24.964 22.7673 27.1124 24.964 29.7634 24.964L29.7639 24.9639L29.7944 24.9641ZM15.4047 34.5638C14.4681 33.6062 13.9983 32.3493 14 31.0939C13.9985 29.8805 14.4374 28.6657 15.3122 27.7211C15.3427 27.6879 15.3737 27.6552 15.4047 27.6235C15.5356 27.4897 15.6741 27.3635 15.8195 27.2457C16.0773 27.0365 16.3514 26.8582 16.6368 26.711C17.2864 26.3752 18.0209 26.1855 18.7977 26.1855C19.4119 26.1855 19.9997 26.3042 20.54 26.5198C21.1418 26.7591 21.706 27.1271 22.1919 27.624C22.8133 28.2593 23.2291 29.0263 23.4382 29.8372C23.5418 30.2384 23.597 30.6594 23.597 31.0928C23.597 31.3323 23.5802 31.5678 23.5478 31.7982C23.5442 31.8237 23.5404 31.8492 23.5364 31.8747C23.3825 32.8592 22.9336 33.8054 22.1919 34.5638C21.2554 35.5215 20.0261 36.0016 18.7983 36.0001C17.5705 36.0018 16.3412 35.5215 15.4047 34.5638Z" fill="#163031"/>
<defs>
<linearGradient id="paint0_linear_1730_1368" x1="172.972" y1="7.02426" x2="91.1971" y2="75.4823" gradientUnits="userSpaceOnUse">
<stop stop-color="#F0FF6C"/>
<stop offset="1" stop-color="#6BFDD9"/>
</linearGradient>
<linearGradient id="paint1_linear_1730_1368" x1="49.9873" y1="0.033695" x2="-9.28213" y2="16.4211" gradientUnits="userSpaceOnUse">
<stop stop-color="#F0FF6C"/>
<stop offset="1" stop-color="#6BFDD9"/>
</linearGradient>
</defs>
</svg>
