<svg width="20" height="20" viewBox="0 0 20 20" fill="none" xmlns="http://www.w3.org/2000/svg">
<path d="M17.6142 9.5992L15.3426 8.95004C14.3196 8.66163 13.3877 8.11551 12.6362 7.36395C11.8846 6.61239 11.3385 5.68053 11.0501 4.65754L10.4009 2.38587C10.3683 2.30639 10.3127 2.23841 10.2413 2.19057C10.17 2.14273 10.086 2.11719 10.0001 2.11719C9.91415 2.11719 9.83017 2.14273 9.75879 2.19057C9.68742 2.23841 9.63189 2.30639 9.59924 2.38587L8.95007 4.65754C8.66166 5.68053 8.11555 6.61239 7.36399 7.36395C6.61242 8.11551 5.68056 8.66163 4.65757 8.95004L2.3859 9.5992C2.29868 9.62396 2.22191 9.67649 2.16725 9.74883C2.11258 9.82117 2.08301 9.90937 2.08301 10C2.08301 10.0907 2.11258 10.1789 2.16725 10.2512C2.22191 10.3236 2.29868 10.3761 2.3859 10.4009L4.65757 11.05C5.68056 11.3384 6.61242 11.8846 7.36399 12.6361C8.11555 13.3877 8.66166 14.3195 8.95007 15.3425L9.59924 17.6142C9.62399 17.7014 9.67653 17.7782 9.74887 17.8329C9.82121 17.8875 9.9094 17.9171 10.0001 17.9171C10.0907 17.9171 10.1789 17.8875 10.2513 17.8329C10.3236 17.7782 10.3761 17.7014 10.4009 17.6142L11.0501 15.3425C11.3385 14.3195 11.8846 13.3877 12.6362 12.6361C13.3877 11.8846 14.3196 11.3384 15.3426 11.05L17.6142 10.4009C17.7015 10.3761 17.7782 10.3236 17.8329 10.2512C17.8876 10.1789 17.9171 10.0907 17.9171 10C17.9171 9.90937 17.8876 9.82117 17.8329 9.74883C17.7782 9.67649 17.7015 9.62396 17.6142 9.5992Z" fill="url(#paint0_linear_362_3347)"/>
<defs>
<linearGradient id="paint0_linear_362_3347" x1="17.9131" y1="2.12784" x2="-0.850705" y2="7.32707" gradientUnits="userSpaceOnUse">
<stop stop-color="#F0FF6C"/>
<stop offset="1" stop-color="#6BFDD9"/>
</linearGradient>
</defs>
</svg>
