<svg width="30" height="30" viewBox="0 0 30 30" fill="none" xmlns="http://www.w3.org/2000/svg">
<path d="M26.4214 14.3988L23.0139 13.425C21.4794 12.9924 20.0816 12.1732 18.9542 11.0459C17.8269 9.91853 17.0077 8.52074 16.5751 6.98625L15.6014 3.57875C15.5524 3.45953 15.4691 3.35756 15.362 3.2858C15.255 3.21404 15.129 3.17573 15.0001 3.17573C14.8712 3.17573 14.7452 3.21404 14.6382 3.2858C14.5311 3.35756 14.4478 3.45953 14.3989 3.57875L13.4251 6.98625C12.9925 8.52074 12.1733 9.91853 11.046 11.0459C9.91863 12.1732 8.52084 12.9924 6.98636 13.425L3.57886 14.3988C3.44802 14.4359 3.33287 14.5147 3.25087 14.6232C3.16888 14.7317 3.12451 14.864 3.12451 15C3.12451 15.136 3.16888 15.2683 3.25087 15.3768C3.33287 15.4853 3.44802 15.5641 3.57886 15.6013L6.98636 16.575C8.52084 17.0076 9.91863 17.8268 11.046 18.9541C12.1733 20.0815 12.9925 21.4793 13.4251 23.0138L14.3989 26.4213C14.436 26.5521 14.5148 26.6672 14.6233 26.7492C14.7318 26.8312 14.8641 26.8756 15.0001 26.8756C15.1361 26.8756 15.2684 26.8312 15.3769 26.7492C15.4854 26.6672 15.5642 26.5521 15.6014 26.4213L16.5751 23.0138C17.0077 21.4793 17.8269 20.0815 18.9542 18.9541C20.0816 17.8268 21.4794 17.0076 23.0139 16.575L26.4214 15.6013C26.5522 15.5641 26.6673 15.4853 26.7493 15.3768C26.8313 15.2683 26.8757 15.136 26.8757 15C26.8757 14.864 26.8313 14.7317 26.7493 14.6232C26.6673 14.5147 26.5522 14.4359 26.4214 14.3988Z" fill="#161513"/>
</svg>
